<svg xmlns="http://www.w3.org/2000/svg" xmlns:xlink="http://www.w3.org/1999/xlink" version="1.1" width="700" height="1000" viewBox="0 0 700 1000">
	<title>Cover of “Last and First Men”, by Olaf Stapledon</title>
	
	<rect width="700" height="1000" fill="#000008"/>
	
	<!--
		<g id="text" font-family="Marcellus, serif" text-anchor="middle" fill="white">
		  <text id="title" x="350" y="125" font-size="54px">Last and First Men</text>
		  <text id="author" x="350" y="930" font-size="32px">Olaf Stapledon</text>
		</g>
	-->
	<g id="text" fill="white">
	  <g id="title">
	    <path d="m 135.8457,122.67969 q 3.11133,0 5.72168,-0.26367 2.61035,-0.26368 4.56153,-0.60645 2.26757,-0.36914 4.13964,-0.87012 l -0.76464,4.27149 q -0.31641,-0.0264 -0.94922,-0.0527 -0.63281,-0.0264 -1.42383,-0.0527 -0.76465,-0.0264 -1.63477,-0.0527 -0.84375,0 -1.60839,-0.0264 -0.76465,0 -1.3711,-0.0264 -0.58008,0 -0.84375,0 l -11.39062,0 0,-0.10547 q 0.1582,-0.55371 0.29004,-1.37109 0.1582,-0.81739 0.26367,-2.03028 0.10547,-1.21289 0.1582,-2.87402 0.0527,-1.6875 0.0527,-3.92871 l 0,-17.165039 q 0,-2.241211 -0.0527,-3.902344 -0.0527,-1.6875 -0.1582,-2.900391 -0.10547,-1.239258 -0.26367,-2.05664 -0.13184,-0.817383 -0.29004,-1.371094 l 0,-0.105469 6.32812,0 0,0.105469 q -0.1582,0.553711 -0.3164,1.371094 -0.13184,0.817382 -0.23731,2.05664 -0.0791,1.212891 -0.1582,2.900391 -0.0527,1.661133 -0.0527,3.902344 l 0,25.154299 z"/>
	    <path d="m 153.35352,117.22168 q 0,-2.08301 0.84375,-3.6123 0.87011,-1.5293 2.29394,-2.61036 1.42383,-1.08105 3.24317,-1.74023 1.81933,-0.68555 3.7705,-1.05469 1.95117,-0.39551 3.84961,-0.52734 1.89844,-0.15821 3.48047,-0.18457 l 0,-1.34473 q 0,-1.74023 -0.44824,-3.00586 -0.44824,-1.26562 -1.26563,-2.08301 -0.81738,-0.84375 -1.97754,-1.239254 -1.13378,-0.421875 -2.50488,-0.421875 -0.94922,0 -1.87207,0.158203 -0.92285,0.158203 -1.9248,0.527346 -0.97559,0.36914 -2.08301,1.00195 -1.08106,0.63281 -2.34668,1.6084 l -0.26367,-0.1582 1.79297,-3.717777 q 0.87011,-0.395508 1.71386,-0.632813 0.84375,-0.263672 1.71387,-0.421875 0.87012,-0.158203 1.7666,-0.210937 0.92285,-0.0791 1.92481,-0.0791 2.76855,0 4.71972,0.685547 1.97754,0.65918 3.2168,1.845707 1.26563,1.16015 1.8457,2.74218 0.58008,1.55567 0.58008,3.34864 l 0,8.5957 q 0,2.24121 0.0527,3.92871 0.0791,1.66113 0.1582,2.87402 0.10547,1.21289 0.2373,2.03028 0.15821,0.81738 0.31641,1.37109 l 0,0.10547 -5.82715,0 0,-0.10547 q 0.13184,-0.42187 0.18457,-0.94922 0.0791,-0.52734 0.13184,-1.26562 -0.55371,0.47461 -1.31836,0.97558 -0.73828,0.50098 -1.71387,0.92286 -0.94922,0.3955 -2.13574,0.63281 -1.16016,0.26367 -2.55762,0.26367 -4.58789,0 -7.09277,-2.13574 -2.50488,-2.16211 -2.50488,-6.11719 z m 17.48144,-7.67285 q -2.39941,0.0264 -4.61426,0.29004 -2.21484,0.2373 -3.92871,1.02832 -1.6875,0.79101 -2.71582,2.26758 -1.00195,1.45019 -1.00195,3.87597 0,3.11133 1.55566,4.7461 1.55567,1.63476 4.29785,1.63476 1.26563,0 2.29395,-0.34277 1.05469,-0.36914 1.8457,-0.89649 0.81739,-0.55371 1.3711,-1.18652 0.55371,-0.65918 0.84375,-1.26562 0.0527,-1.00196 0.0527,-2.21485 0,-1.23926 0,-2.79492 l 0,-5.1416 z"/>
	    <path d="m 195.33008,103.2998 -0.36914,0.0527 q -0.18457,-0.60645 -0.60645,-1.29199 -0.39551,-0.68555 -1.05469,-1.26563 -0.63281,-0.58008 -1.55566,-0.949217 -0.89648,-0.395508 -2.08301,-0.395508 -0.81738,0 -1.55566,0.237305 -0.71192,0.237305 -1.26563,0.71191 -0.52734,0.44825 -0.84375,1.13379 -0.3164,0.68555 -0.3164,1.6084 0,1.29199 0.79101,2.47852 0.81739,1.16015 2.03028,2.32031 1.21289,1.13379 2.61035,2.29395 1.42383,1.16015 2.63672,2.42578 1.21289,1.26562 2.0039,2.71582 0.81739,1.42382 0.81739,3.08496 0,1.34472 -0.47461,2.63672 -0.47461,1.26562 -1.47657,2.26757 -0.97558,1.00196 -2.53125,1.63477 -1.52929,0.60645 -3.66503,0.60645 -1.26563,0 -2.37305,-0.23731 -1.08106,-0.2373 -2.00391,-0.58008 -0.89648,-0.36914 -1.63476,-0.79101 -0.71192,-0.44825 -1.26563,-0.84375 l 0.26367,-5.00977 0.42188,0 q 0.26367,1.23926 0.79101,2.26758 0.52735,1.02832 1.292,1.7666 0.79101,0.71192 1.79296,1.13379 1.00196,0.39551 2.18848,0.39551 1.95117,0 3.08496,-1.08106 1.16016,-1.08105 1.16016,-2.82129 0,-1.39746 -0.79102,-2.55761 -0.76465,-1.18653 -1.95117,-2.26758 -1.18652,-1.08106 -2.55762,-2.16211 -1.34472,-1.08106 -2.53125,-2.29395 -1.18652,-1.23925 -1.97754,-2.68945 -0.76464,-1.47656 -0.76464,-3.34863 0,-1.5293 0.55371,-2.79492 0.58008,-1.292 1.58203,-2.18848 1.02832,-0.922852 2.42578,-1.423828 1.39746,-0.500977 3.05859,-0.500977 2.18848,0 3.63868,0.474609 1.47656,0.448243 2.24121,0.870118 l 0.26367,4.376948 z"/>
	    <path d="m 212.04688,123.44434 q 0.79101,0 1.55566,-0.29004 0.79101,-0.29004 1.50293,-0.79102 0.73828,-0.50098 1.39746,-1.13379 0.68555,-0.65918 1.26562,-1.37109 l 0.26368,0.13183 -1.71387,4.24512 q -0.31641,0.1582 -0.79102,0.39551 -0.44824,0.21094 -1.10742,0.39551 -0.63281,0.21093 -1.50293,0.34277 -0.87011,0.1582 -2.05664,0.1582 -3.5332,0 -5.51074,-1.89843 -1.95117,-1.92481 -1.95117,-5.98536 l 0,-17.58691 -4.42969,0.1582 0,-2.320309 q 0.81738,0.05273 1.95117,0.0791 Q 202.05371,98 203.39844,98 q -0.0264,-1.87207 -0.10547,-3.295898 -0.0527,-1.450196 -0.1582,-2.504883 -0.0791,-1.081055 -0.21094,-1.819336 -0.13184,-0.738281 -0.26367,-1.239258 l 0,-0.105469 6.09082,0 0,0.105469 q -0.15821,0.500977 -0.29004,1.239258 -0.13184,0.738281 -0.23731,1.792969 -0.0791,1.054687 -0.1582,2.504882 -0.0527,1.423829 -0.0791,3.322266 1.66113,-0.02637 3.24316,-0.05273 1.6084,-0.05273 2.90039,-0.105469 1.31836,-0.0791 2.21485,-0.131836 0.92285,-0.0791 1.21289,-0.131836 l -0.47461,2.689455 q -1.34473,-0.0264 -2.82129,-0.0791 -1.26563,-0.0527 -2.90039,-0.0791 -1.63477,-0.0264 -3.375,-0.0527 l 0,18.14063 q 0,1.63476 0.34277,2.66308 0.36914,1.00195 0.92285,1.58203 0.58008,0.58008 1.292,0.79102 0.73828,0.21094 1.50293,0.21094 z"/>
	    <path d="m 237.41211,117.22168 q 0,-2.08301 0.84375,-3.6123 0.87012,-1.5293 2.29394,-2.61036 1.42383,-1.08105 3.24317,-1.74023 1.81933,-0.68555 3.77051,-1.05469 1.95117,-0.39551 3.84961,-0.52734 1.89843,-0.15821 3.48046,-0.18457 l 0,-1.34473 q 0,-1.74023 -0.44824,-3.00586 -0.44824,-1.26562 -1.26562,-2.08301 -0.81739,-0.84375 -1.97754,-1.239254 -1.13379,-0.421875 -2.50488,-0.421875 -0.94922,0 -1.87207,0.158203 -0.92286,0.158203 -1.92481,0.527346 -0.97559,0.36914 -2.08301,1.00195 -1.08105,0.63281 -2.34668,1.6084 l -0.26367,-0.1582 L 242,98.817383 q 0.87012,-0.395508 1.71387,-0.632813 0.84375,-0.263672 1.71386,-0.421875 0.87012,-0.158203 1.76661,-0.210937 0.92285,-0.0791 1.9248,-0.0791 2.76856,0 4.71973,0.685547 1.97754,0.65918 3.21679,1.845707 1.26563,1.16015 1.84571,2.74218 0.58008,1.55567 0.58008,3.34864 l 0,8.5957 q 0,2.24121 0.0527,3.92871 0.0791,1.66113 0.1582,2.87402 0.10547,1.21289 0.23731,2.03028 0.1582,0.81738 0.3164,1.37109 l 0,0.10547 -5.82714,0 0,-0.10547 q 0.13183,-0.42187 0.18457,-0.94922 0.0791,-0.52734 0.13183,-1.26562 -0.55371,0.47461 -1.31836,0.97558 -0.73828,0.50098 -1.71386,0.92286 -0.94922,0.3955 -2.13575,0.63281 -1.16015,0.26367 -2.55761,0.26367 -4.58789,0 -7.09278,-2.13574 -2.50488,-2.16211 -2.50488,-6.11719 z m 17.48144,-7.67285 q -2.39941,0.0264 -4.61425,0.29004 -2.21485,0.2373 -3.92871,1.02832 -1.6875,0.79101 -2.71582,2.26758 -1.00196,1.45019 -1.00196,3.87597 0,3.11133 1.55567,4.7461 1.55566,1.63476 4.29785,1.63476 1.26562,0 2.29394,-0.34277 1.05469,-0.36914 1.84571,-0.89649 0.81738,-0.55371 1.37109,-1.18652 0.55371,-0.65918 0.84375,-1.26562 0.0527,-1.00196 0.0527,-2.21485 0,-1.23926 0,-2.79492 l 0,-5.1416 z"/>
	    <path d="m 285.61133,107.22852 q 0,-3.48047 -1.39746,-5.11524 -1.39746,-1.63476 -3.74414,-1.63476 -0.84375,0 -1.89844,0.36914 -1.05469,0.34277 -2.16211,0.94922 -1.10742,0.58007 -2.21484,1.37109 -1.10743,0.79101 -2.08301,1.6875 l -0.0527,3.4541 0,6.38086 q 0,2.24121 0.0527,3.92871 0.0527,1.66113 0.1582,2.87402 0.10547,1.21289 0.23731,2.03028 0.13183,0.81738 0.29004,1.37109 l 0,0.10547 -6.09083,0 0,-0.10547 q 0.15821,-0.55371 0.29004,-1.37109 0.15821,-0.81739 0.23731,-2.03028 0.10547,-1.21289 0.1582,-2.87402 0.0791,-1.6875 0.0791,-3.92871 l 0,-6.38086 q 0,-2.24121 -0.0791,-3.90234 -0.0527,-1.6875 -0.1582,-2.90039 -0.0791,-1.21289 -0.23731,-2.030277 -0.13183,-0.817383 -0.29004,-1.371094 l 0,-0.105469 6.09083,0 0,0.105469 q -0.21094,0.659179 -0.34278,1.6875 -0.10547,1.001951 -0.2373,2.636721 1.08105,-0.89649 2.32031,-1.79297 1.26562,-0.896486 2.61035,-1.582032 1.34473,-0.711915 2.74219,-1.13379 1.39746,-0.448242 2.74219,-0.448242 2.05664,0 3.48046,0.711914 1.4502,0.711914 2.34668,1.87207 0.92286,1.16016 1.31836,2.66309 0.42188,1.47656 0.42188,3.00586 l 0,8.96484 q 0,2.24121 0.0527,3.92871 0.0527,1.66113 0.15821,2.87402 0.10547,1.21289 0.2373,2.03028 0.13184,0.81738 0.29004,1.37109 l 0,0.10547 -6.09082,0 0,-0.10547 q 0.1582,-0.55371 0.29004,-1.37109 0.1582,-0.81739 0.2373,-2.03028 0.10547,-1.21289 0.15821,-2.87402 0.0791,-1.6875 0.0791,-3.92871 l 0,-7.46191 z"/>
	    <path d="m 310.18555,97.525391 q 1.08105,0 2.16211,0.18457 1.08105,0.18457 2.10937,0.527344 1.02832,0.342773 1.95117,0.84375 0.92285,0.500976 1.66114,1.133785 l 0,-4.324215 q 0,-2.241211 -0.0527,-3.902344 -0.0527,-1.6875 -0.1582,-2.90039 -0.10547,-1.212891 -0.23731,-2.030274 -0.13183,-0.817383 -0.29004,-1.371094 l 0,-0.105468 6.09083,0 0,0.105468 q -0.15821,0.553711 -0.31641,1.371094 -0.13184,0.817383 -0.23731,2.030274 -0.0791,1.21289 -0.1582,2.90039 -0.0527,1.661133 -0.0527,3.902344 l 0,18.799805 q 0,2.24121 0.0527,3.92871 0.0791,1.66113 0.1582,2.87402 0.10547,1.21289 0.23731,2.03028 0.1582,0.81738 0.31641,1.37109 l 0,0.10547 -5.82715,0 0,-0.10547 q 0.0791,-0.21094 0.13183,-0.60644 0.0527,-0.42188 0.13184,-1.02832 -1.34473,0.84375 -3.375,1.52929 -2.03027,0.68555 -4.71973,0.68555 -3.13769,0 -5.69531,-0.97559 -2.55762,-0.97558 -4.37695,-2.79492 -1.79297,-1.81933 -2.76856,-4.40332 -0.97558,-2.61035 -0.97558,-5.85351 0,-2.9795 1.05468,-5.51075 1.05469,-2.55761 2.95313,-4.42968 1.89844,-1.872074 4.50879,-2.926762 2.61035,-1.054687 5.72168,-1.054687 z m 7.88379,7.330079 q -1.05469,-2.76856 -3.03223,-4.08692 -1.95117,-1.318355 -4.40332,-1.318355 -2.05664,0 -3.79688,0.738285 -1.74023,0.71191 -2.97949,2.083 -1.23926,1.3711 -1.95117,3.375 -0.68555,1.97754 -0.68555,4.50879 0,2.84766 0.63282,5.29981 0.63281,2.45215 1.8457,4.27148 1.23926,1.79297 3.05859,2.82129 1.81934,1.00195 4.19239,1.00195 1.23925,0 2.32031,-0.29003 1.08105,-0.29004 1.97754,-0.73829 0.89648,-0.44824 1.58203,-0.97558 0.68555,-0.55371 1.13379,-1.08106 0.0527,-1.13379 0.0791,-2.58398 0.0264,-1.4502 0.0264,-3.19043 l 0,-9.83496 z"/>
	    <path d="m 352.26758,114.69043 q 0,2.24121 0.0527,3.92871 0.0791,1.66113 0.15821,2.87402 0.10546,1.21289 0.2373,2.03028 0.1582,0.81738 0.31641,1.37109 l 0,0.10547 -6.32813,0 0,-0.10547 q 0.1582,-0.55371 0.29004,-1.37109 0.1582,-0.81739 0.26367,-2.03028 0.10547,-1.21289 0.15821,-2.87402 0.0527,-1.6875 0.0527,-3.92871 l 0,-17.165039 q 0,-2.241211 -0.0527,-3.902344 -0.0527,-1.6875 -0.15821,-2.900391 -0.10547,-1.239258 -0.26367,-2.05664 -0.13184,-0.817383 -0.29004,-1.371094 l 0,-0.105469 q 2.18848,0 4.42969,0 2.24121,-0.02637 4.35059,-0.02637 2.10937,-0.02637 4.00781,-0.05273 1.89844,-0.05274 3.42773,-0.0791 1.5293,-0.05273 2.58399,-0.105469 1.05468,-0.0791 1.50293,-0.158203 l -1.292,3.506836 q -0.87011,-0.237305 -2.03027,-0.421875 -1.00195,-0.158203 -2.45215,-0.290039 -1.42383,-0.158203 -3.2959,-0.158203 -0.63281,0 -1.58203,0.05273 -0.94922,0.02637 -1.87207,0.0791 -1.05469,0.05273 -2.21484,0.105469 l 0,13.315428 q 2.71582,-0.0264 4.9834,-0.1582 2.26757,-0.13184 3.90234,-0.26367 1.89844,-0.15821 3.42773,-0.36914 l -0.79101,3.82324 q -1.97754,-0.23731 -4.00781,-0.44824 -1.74024,-0.18457 -3.74414,-0.31641 -2.00391,-0.1582 -3.77051,-0.1582 l 0,9.62402 z"/>
	    <path d="m 372.35938,108.30957 q 0,-2.24121 -0.0791,-3.90234 -0.0527,-1.6875 -0.1582,-2.90039 -0.0791,-1.21289 -0.2373,-2.030277 -0.13184,-0.817383 -0.29004,-1.371094 l 0,-0.105469 6.09082,0 0,0.105469 q -0.15821,0.553711 -0.29004,1.371094 -0.13184,0.817387 -0.23731,2.030277 -0.10547,1.21289 -0.1582,2.90039 -0.0527,1.66113 -0.0527,3.90234 l 0,6.38086 q 0,2.24121 0.0527,3.92871 0.0527,1.66113 0.1582,2.87402 0.10547,1.21289 0.23731,2.03028 0.13183,0.81738 0.29004,1.37109 l 0,0.10547 -6.09082,0 0,-0.10547 q 0.1582,-0.55371 0.29004,-1.37109 0.1582,-0.81739 0.2373,-2.03028 0.10547,-1.21289 0.1582,-2.87402 0.0791,-1.6875 0.0791,-3.92871 l 0,-6.38086 z m -0.55372,-18.298828 q 0,-0.580078 0.21094,-1.081055 0.23731,-0.527343 0.60645,-0.896484 0.36914,-0.395508 0.87011,-0.606445 0.52735,-0.237305 1.13379,-0.237305 0.60645,0 1.10743,0.237305 0.52734,0.210937 0.89648,0.606445 0.39551,0.369141 0.60644,0.896484 0.23731,0.500977 0.23731,1.081055 0,1.212891 -0.81738,2.030274 -0.81739,0.817382 -2.03028,0.817382 -0.60644,0 -1.13379,-0.210937 -0.50097,-0.237305 -0.87011,-0.606445 -0.36914,-0.395508 -0.60645,-0.896485 -0.21094,-0.527344 -0.21094,-1.133789 z"/>
	    <path d="m 385.2793,108.30957 q 0,-2.24121 -0.0791,-3.90234 -0.0527,-1.6875 -0.15821,-2.90039 -0.0791,-1.21289 -0.2373,-2.030277 -0.13184,-0.817383 -0.29004,-1.371094 l 0,-0.105469 6.09082,0 0,0.105469 q -0.21094,0.606445 -0.36914,1.476562 -0.13184,0.870119 -0.21094,2.241209 0.97559,-0.81738 2.03027,-1.6084 1.05469,-0.791012 2.16211,-1.397457 1.10743,-0.606445 2.24121,-0.975586 1.16016,-0.369141 2.32032,-0.369141 0.71191,0 1.23925,0.0791 0.52735,0.05273 0.94922,0.18457 0.42188,0.105469 0.76465,0.263672 0.34278,0.131836 0.65918,0.263672 l -1.29199,5.036128 -0.44824,-0.10546 q -0.31641,-1.16016 -1.18653,-1.84571 -0.87011,-0.71191 -2.37304,-0.71191 -0.81739,0 -1.71387,0.29004 -0.89648,0.29004 -1.81934,0.81738 -0.92285,0.50098 -1.8457,1.18652 -0.92285,0.65918 -1.79297,1.39746 -0.0527,0.76465 -0.0527,1.66114 0,0.89648 0,1.89844 l 0,6.80273 q 0,2.24121 0.0527,3.92871 0.0527,1.66113 0.15821,2.87402 0.10546,1.21289 0.2373,2.03028 0.13184,0.81738 0.29004,1.37109 l 0,0.10547 -6.09082,0 0,-0.10547 q 0.1582,-0.55371 0.29004,-1.37109 0.1582,-0.81739 0.2373,-2.03028 0.10547,-1.21289 0.15821,-2.87402 0.0791,-1.6875 0.0791,-3.92871 l 0,-6.38086 z"/>
	    <path d="m 418.39648,103.2998 -0.36914,0.0527 q -0.18457,-0.60645 -0.60644,-1.29199 -0.39551,-0.68555 -1.05469,-1.26563 -0.63281,-0.58008 -1.55566,-0.949217 -0.89649,-0.395508 -2.08301,-0.395508 -0.81738,0 -1.55566,0.237305 -0.71192,0.237305 -1.26563,0.71191 -0.52734,0.44825 -0.84375,1.13379 -0.31641,0.68555 -0.31641,1.6084 0,1.29199 0.79102,2.47852 0.81738,1.16015 2.03027,2.32031 1.21289,1.13379 2.61035,2.29395 1.42383,1.16015 2.63672,2.42578 1.21289,1.26562 2.00391,2.71582 0.81738,1.42382 0.81738,3.08496 0,1.34472 -0.47461,2.63672 -0.47461,1.26562 -1.47656,2.26757 -0.97559,1.00196 -2.53125,1.63477 -1.5293,0.60645 -3.66504,0.60645 -1.26562,0 -2.37305,-0.23731 -1.08105,-0.2373 -2.0039,-0.58008 -0.89649,-0.36914 -1.63477,-0.79101 -0.71191,-0.44825 -1.26562,-0.84375 l 0.26367,-5.00977 0.42187,0 q 0.26368,1.23926 0.79102,2.26758 0.52734,1.02832 1.29199,1.7666 0.79102,0.71192 1.79297,1.13379 1.00195,0.39551 2.18848,0.39551 1.95117,0 3.08496,-1.08106 1.16015,-1.08105 1.16015,-2.82129 0,-1.39746 -0.79101,-2.55761 -0.76465,-1.18653 -1.95117,-2.26758 -1.18653,-1.08106 -2.55762,-2.16211 -1.34473,-1.08106 -2.53125,-2.29395 -1.18652,-1.23925 -1.97754,-2.68945 -0.76465,-1.47656 -0.76465,-3.34863 0,-1.5293 0.55371,-2.79492 0.58008,-1.292 1.58203,-2.18848 1.02833,-0.922852 2.42579,-1.423828 1.39746,-0.500977 3.05859,-0.500977 2.18848,0 3.63867,0.474609 1.47656,0.448243 2.24121,0.870118 l 0.26367,4.376948 z"/>
	    <path d="m 435.11328,123.44434 q 0.79102,0 1.55567,-0.29004 0.79101,-0.29004 1.50293,-0.79102 0.73828,-0.50098 1.39746,-1.13379 0.68554,-0.65918 1.26562,-1.37109 l 0.26367,0.13183 -1.71386,4.24512 q -0.31641,0.1582 -0.79102,0.39551 -0.44824,0.21094 -1.10742,0.39551 -0.63281,0.21093 -1.50293,0.34277 -0.87012,0.1582 -2.05664,0.1582 -3.53321,0 -5.51074,-1.89843 -1.95118,-1.92481 -1.95118,-5.98536 l 0,-17.58691 -4.42968,0.1582 0,-2.320309 q 0.81738,0.05273 1.95117,0.0791 Q 425.12012,98 426.46484,98 q -0.0264,-1.87207 -0.10546,-3.295898 -0.0527,-1.450196 -0.15821,-2.504883 -0.0791,-1.081055 -0.21094,-1.819336 -0.13183,-0.738281 -0.26367,-1.239258 l 0,-0.105469 6.09082,0 0,0.105469 q -0.1582,0.500977 -0.29004,1.239258 -0.13183,0.738281 -0.2373,1.792969 -0.0791,1.054687 -0.1582,2.504882 -0.0527,1.423829 -0.0791,3.322266 1.66114,-0.02637 3.24317,-0.05273 1.6084,-0.05273 2.90039,-0.105469 1.31836,-0.0791 2.21484,-0.131836 0.92285,-0.0791 1.21289,-0.131836 l -0.47461,2.689455 q -1.34472,-0.0264 -2.82128,-0.0791 -1.26563,-0.0527 -2.9004,-0.0791 -1.63476,-0.0264 -3.375,-0.0527 l 0,18.14063 q 0,1.63476 0.34278,2.66308 0.36914,1.00195 0.92285,1.58203 0.58008,0.58008 1.29199,0.79102 0.73828,0.21094 1.50293,0.21094 z"/>
	    <path d="m 460.42578,124.89453 q 0.29004,-0.42187 0.65918,-1.23926 0.36914,-0.84375 0.58008,-2.10937 0.29004,-1.8457 0.63281,-4.13965 0.36914,-2.32031 0.73828,-4.85156 0.39551,-2.53125 0.76465,-5.16797 0.39551,-2.66309 0.73828,-5.2207 0.36914,-2.583989 0.68555,-4.957036 0.34277,-2.399414 0.60644,-4.376953 0.26368,-1.977539 0.42188,-3.427734 0.18457,-1.476563 0.26367,-2.214844 l 3.34863,0 16.58497,31.007817 16.45312,-31.007817 2.50488,0 4.32422,31.324217 q 0.18457,1.47656 0.39551,2.53125 0.21094,1.05469 0.42187,1.81934 0.21094,0.73828 0.39551,1.23926 0.21094,0.47461 0.39551,0.79101 l 0,0.10547 -6.64453,0 0,-0.10547 q 0.13184,-0.29004 0.2373,-0.94922 0.13184,-0.65918 0.13184,-1.58203 0,-0.34277 -0.0264,-0.68555 -0.0264,-0.36914 -0.0791,-0.79101 l -3.34863,-25.259767 -15.55664,29.267577 -1.81934,-0.21094 -15.66211,-29.320309 q -0.92285,6.249019 -1.6084,11.548829 -0.29004,2.26758 -0.58007,4.53516 -0.29004,2.24121 -0.52735,4.19238 -0.21094,1.95117 -0.34277,3.4541 -0.13184,1.47656 -0.13184,2.18848 0,0.89648 0.0527,1.58203 0.0527,0.68554 0.10547,1.16015 0.0791,0.55372 0.1582,0.97559 l -5.27344,0 0,-0.10547 z"/>
	    <path d="m 529.34961,125.47461 q -2.92676,0 -5.48438,-0.92285 -2.55761,-0.92285 -4.45605,-2.68946 -1.89844,-1.79296 -3.00586,-4.40332 -1.08105,-2.63671 -1.08105,-6.01171 0,-2.9795 1.00195,-5.51075 1.00195,-2.55761 2.76855,-4.42968 1.76661,-1.872074 4.11328,-2.926762 2.37305,-1.054687 5.11524,-1.054687 2.71582,0 5.03613,0.949218 2.32031,0.922852 4.00781,2.715821 1.71387,1.7666 2.68946,4.40332 1.00195,2.61035 1.08105,5.95898 -2.97949,-0.0527 -5.95898,-0.0791 -2.97949,-0.0264 -6.19629,-0.0264 -2.29395,0 -4.48242,0.0264 -2.16211,0.0264 -3.90235,0.0791 0.15821,2.74219 0.84375,4.95704 0.71192,2.21484 1.92481,3.79687 1.23926,1.55566 2.97949,2.39941 1.7666,0.84375 3.98145,0.84375 1.52929,0 2.87402,-0.34277 1.37109,-0.36914 2.47851,-1.00195 1.10743,-0.63281 1.97754,-1.47656 0.87012,-0.87012 1.47657,-1.87207 l 0.3164,0.1582 -1.95117,4.69336 q -1.42383,0.73828 -3.40137,1.26562 -1.97754,0.50098 -4.74609,0.50098 z m -3.50684,-16.08399 q 2.63672,0 5.27344,0 2.66309,-0.0264 4.8252,-0.10546 -0.23731,-2.29395 -0.89649,-4.11328 -0.65918,-1.81934 -1.6875,-3.08497 -1.02832,-1.26562 -2.42578,-1.95117 -1.39746,-0.685545 -3.08496,-0.685545 -1.5293,0 -2.82129,0.685545 -1.26562,0.65918 -2.21484,1.92481 -0.94922,1.26562 -1.5293,3.11133 -0.58008,1.81933 -0.68555,4.16601 1.18653,0.0527 2.50489,0.0527 1.31836,0 2.74218,0 z"/>
	    <path d="m 564.99805,107.22852 q 0,-3.48047 -1.39746,-5.11524 -1.39747,-1.63476 -3.74414,-1.63476 -0.84375,0 -1.89844,0.36914 -1.05469,0.34277 -2.16211,0.94922 -1.10742,0.58007 -2.21485,1.37109 -1.10742,0.79101 -2.083,1.6875 l -0.0527,3.4541 0,6.38086 q 0,2.24121 0.0527,3.92871 0.0527,1.66113 0.1582,2.87402 0.10547,1.21289 0.2373,2.03028 0.13184,0.81738 0.29004,1.37109 l 0,0.10547 -6.09082,0 0,-0.10547 q 0.15821,-0.55371 0.29004,-1.37109 0.15821,-0.81739 0.23731,-2.03028 0.10547,-1.21289 0.1582,-2.87402 0.0791,-1.6875 0.0791,-3.92871 l 0,-6.38086 q 0,-2.24121 -0.0791,-3.90234 -0.0527,-1.6875 -0.1582,-2.90039 -0.0791,-1.21289 -0.23731,-2.030277 -0.13183,-0.817383 -0.29004,-1.371094 l 0,-0.105469 6.09082,0 0,0.105469 q -0.21093,0.659179 -0.34277,1.6875 -0.10547,1.001951 -0.2373,2.636721 1.08105,-0.89649 2.32031,-1.79297 1.26562,-0.896486 2.61035,-1.582032 1.34473,-0.711915 2.74219,-1.13379 1.39746,-0.448242 2.74218,-0.448242 2.05665,0 3.48047,0.711914 1.4502,0.711914 2.34668,1.87207 0.92285,1.16016 1.31836,2.66309 0.42188,1.47656 0.42188,3.00586 l 0,8.96484 q 0,2.24121 0.0527,3.92871 0.0527,1.66113 0.15821,2.87402 0.10546,1.21289 0.2373,2.03028 0.13184,0.81738 0.29004,1.37109 l 0,0.10547 -6.09082,0 0,-0.10547 q 0.1582,-0.55371 0.29004,-1.37109 0.1582,-0.81739 0.2373,-2.03028 0.10547,-1.21289 0.15821,-2.87402 0.0791,-1.6875 0.0791,-3.92871 l 0,-7.46191 z"/>
	  </g>
	  <g id="author">
	    <path d="m 255.45313,907.21875 q 2.60937,0 4.8125,0.85937 2.21875,0.84376 3.82812,2.39063 1.60938,1.53125 2.51563,3.6875 0.90625,2.15625 0.90625,4.76563 0,1.48437 -0.34375,2.92187 -0.34375,1.4375 -1.01563,2.71875 -0.65625,1.28125 -1.625,2.375 -0.96875,1.07812 -2.21875,1.875 -1.23437,0.78125 -2.73437,1.21875 -1.5,0.45312 -3.23438,0.45312 -2.60937,0 -4.82812,-0.82812 -2.20313,-0.84375 -3.8125,-2.375 -1.60938,-1.53125 -2.51563,-3.67187 -0.90625,-2.15626 -0.90625,-4.78125 0,-1.48438 0.34375,-2.92188 0.34375,-1.4375 1,-2.73438 0.67188,-1.29687 1.625,-2.37499 0.96875,-1.09375 2.20313,-1.89063 1.25,-0.79688 2.75,-1.23437 1.51562,-0.45313 3.25,-0.45313 z m 0.89062,21.85937 q 1.73438,0 3.17188,-0.625 1.4375,-0.62499 2.46875,-1.81249 1.04687,-1.18751 1.625,-2.89063 0.57812,-1.71875 0.57812,-3.89062 0,-2.40626 -0.5625,-4.45313 -0.54687,-2.0625 -1.64062,-3.5625 -1.09375,-1.51563 -2.73438,-2.35938 -1.625,-0.85937 -3.79687,-0.85937 -1.73438,0 -3.17188,0.625 -1.4375,0.60938 -2.48437,1.78125 -1.03125,1.17187 -1.60938,2.875 -0.57812,1.70313 -0.57812,3.875 0,2.39062 0.54687,4.46875 0.54688,2.0625 1.64063,3.57813 1.09375,1.51562 2.73437,2.39062 1.64063,0.85937 3.8125,0.85937 z"/>
	    <path d="m 271.3125,912.75 q 0,-1.32813 -0.0469,-2.3125 -0.0313,-1 -0.0937,-1.71875 -0.0469,-0.71875 -0.14063,-1.20312 -0.0781,-0.48438 -0.17187,-0.8125 l 0,-0.0625 3.60937,0 0,0.0625 q -0.0937,0.32812 -0.17187,0.8125 -0.0781,0.48437 -0.14063,1.20312 -0.0625,0.71875 -0.0937,1.71875 -0.0313,0.98437 -0.0313,2.3125 l 0,11.14063 q 0,1.32812 0.0313,2.32812 0.0313,0.98437 0.0937,1.70313 0.0625,0.71875 0.14063,1.20312 0.0781,0.48438 0.17187,0.8125 l 0,0.0625 -3.60937,0 0,-0.0625 q 0.0937,-0.32812 0.17187,-0.8125 0.0937,-0.48437 0.14063,-1.20312 0.0625,-0.71876 0.0937,-1.70313 0.0469,-1 0.0469,-2.32812 l 0,-11.14063 z"/>
	    <path d="m 277.71875,925.39062 q 0,-1.23437 0.5,-2.14062 0.51563,-0.90625 1.35938,-1.54687 0.84375,-0.64063 1.92187,-1.03125 1.07813,-0.40626 2.23438,-0.62501 1.15625,-0.23437 2.28125,-0.31249 1.125,-0.0937 2.0625,-0.10938 l 0,-0.79687 q 0,-1.03125 -0.26563,-1.78126 -0.26562,-0.75 -0.75,-1.23437 -0.48437,-0.5 -1.17187,-0.73438 -0.67188,-0.24999 -1.48438,-0.24999 -0.5625,0 -1.10937,0.0937 -0.54688,0.0937 -1.14063,0.31249 -0.57812,0.21875 -1.23437,0.59376 -0.64063,0.37499 -1.39063,0.95312 l -0.15625,-0.0937 1.0625,-2.20313 q 0.51563,-0.23437 1.01563,-0.375 0.5,-0.15624 1.01562,-0.24999 0.51563,-0.0937 1.04688,-0.125 0.54687,-0.0469 1.14062,-0.0469 1.64063,0 2.79688,0.40625 1.17187,0.39062 1.90625,1.09375 0.75,0.6875 1.09375,1.625 0.34375,0.92188 0.34375,1.98438 l 0,5.09375 q 0,1.32812 0.0313,2.32812 0.0469,0.98437 0.0937,1.70313 0.0625,0.71875 0.14062,1.20312 0.0937,0.48438 0.1875,0.8125 l 0,0.0625 -3.45312,0 0,-0.0625 q 0.0781,-0.25 0.10937,-0.5625 0.0469,-0.3125 0.0781,-0.75 -0.32813,0.28125 -0.78125,0.57812 -0.4375,0.29688 -1.01563,0.54688 -0.5625,0.23438 -1.26562,0.375 -0.6875,0.15625 -1.51563,0.15625 -2.71875,0 -4.20312,-1.26563 -1.48438,-1.28124 -1.48438,-3.625 z m 10.35938,-4.54687 q -1.42188,0.0156 -2.73438,0.17187 -1.3125,0.14063 -2.32812,0.60938 -1,0.46875 -1.60938,1.34375 -0.59375,0.85938 -0.59375,2.29687 0,1.84375 0.92188,2.8125 0.92187,0.96875 2.54687,0.96875 0.75,0 1.35938,-0.20312 0.625,-0.21875 1.09375,-0.53125 0.48437,-0.32812 0.8125,-0.70312 0.32812,-0.39063 0.5,-0.75 0.0313,-0.59376 0.0313,-1.3125 0,-0.73438 0,-1.65625 l 0,-3.04688 z"/>
	    <path d="m 301.3125,907.625 q -0.39062,0 -0.84375,0.14063 -0.4375,0.14062 -0.8125,0.51562 -0.375,0.375 -0.625,1.04687 -0.25,0.65626 -0.25,1.70313 l 0,2.96875 q 0.82813,-0.0156 1.54688,-0.0469 0.73437,-0.0313 1.3125,-0.0625 0.57812,-0.0313 0.96875,-0.0625 0.39062,-0.0469 0.5625,-0.0781 l -0.28125,1.59375 q -0.54688,-0.0156 -1.1875,-0.0469 -0.54688,-0.0313 -1.29688,-0.0469 -0.75,-0.0156 -1.625,-0.0313 l 0,8.67188 q 0,1.32812 0.0313,2.32812 0.0469,0.98437 0.0937,1.70313 0.0625,0.71875 0.14063,1.20312 0.0937,0.48438 0.1875,0.8125 l 0,0.0625 -3.60938,0 0,-0.0625 q 0.0937,-0.32812 0.17188,-0.8125 0.0781,-0.48437 0.14062,-1.20312 0.0625,-0.71876 0.0937,-1.70313 0.0313,-1 0.0313,-2.32812 l 0,-8.67188 -2.625,0.0937 0,-1.375 q 0.48438,0.0313 1.15625,0.0469 Q 295.26563,914 296.0625,914 l 0,-2.625 q 0,-1.20313 0.34375,-2.125 0.35938,-0.9375 0.98438,-1.5625 0.625,-0.64063 1.5,-0.96875 0.875,-0.32813 1.92187,-0.32813 0.57813,0 1.07813,0.0781 0.5,0.0781 0.89062,0.1875 0.40625,0.10938 0.70313,0.23438 Q 303.79688,907 304,907.09375 l 0.60938,2.6875 -0.1875,0.0937 q -0.25,-0.375 -0.54688,-0.76563 -0.29687,-0.40624 -0.67187,-0.73437 -0.375,-0.32813 -0.84375,-0.53125 -0.45313,-0.21875 -1.04688,-0.21875 z"/>
	    <path d="m 324.57813,911.15625 -0.34375,0 q -0.125,-0.35937 -0.40625,-0.8125 -0.26563,-0.45312 -0.71875,-0.84375 -0.4375,-0.40625 -1.07813,-0.67187 -0.625,-0.26563 -1.48437,-0.26563 -0.76563,0 -1.35938,0.23438 -0.59375,0.23437 -1,0.65624 -0.39062,0.42188 -0.59375,1 -0.20312,0.57813 -0.20312,1.28126 0,1.125 0.625,2.15625 0.64062,1.01562 1.59375,2.01562 0.95312,1 2.0625,2 1.10937,1 2.0625,2.07813 0.95312,1.07812 1.57812,2.26562 0.64063,1.17187 0.64063,2.53125 0,1.01563 -0.35938,2.04688 -0.34375,1.01562 -1.07812,1.82812 -0.73438,0.8125 -1.89063,1.32813 -1.15625,0.49999 -2.75,0.49999 -0.89062,0 -1.70312,-0.17187 -0.79688,-0.15625 -1.48438,-0.39062 -0.67187,-0.25 -1.21875,-0.53126 -0.53125,-0.28125 -0.875,-0.51562 l 0.35938,-3.45313 0.39062,0 q 0.17188,0.73438 0.5625,1.40626 0.39063,0.65624 0.95313,1.17187 0.57812,0.5 1.3125,0.8125 0.73437,0.29687 1.60937,0.29687 0.79688,0 1.42188,-0.23437 0.64062,-0.25 1.09375,-0.67188 0.45312,-0.43749 0.6875,-1.03125 0.25,-0.59374 0.25,-1.29687 0,-0.98437 -0.35938,-1.8125 -0.35937,-0.84375 -0.95312,-1.59375 -0.57813,-0.75 -1.32813,-1.45313 -0.73437,-0.70312 -1.51562,-1.40624 -0.78125,-0.71875 -1.53125,-1.46876 -0.73438,-0.75 -1.32813,-1.59374 -0.57812,-0.85938 -0.9375,-1.82813 -0.35937,-0.98437 -0.35937,-2.15625 0,-1.23438 0.46875,-2.21875 0.48437,-1 1.26562,-1.70312 0.79688,-0.70313 1.79688,-1.07813 1,-0.375 2.0625,-0.375 0.78125,0 1.4375,0.125 0.65625,0.125 1.17187,0.29688 0.53125,0.17187 0.92188,0.34375 0.39062,0.17187 0.64062,0.28124 l -0.10937,2.92188 z"/>
	    <path d="m 335.625,929.07812 q 0.46875,0 0.92188,-0.17187 0.46875,-0.17187 0.89062,-0.46875 0.4375,-0.29688 0.82813,-0.67187 0.40625,-0.39063 0.75,-0.8125 l 0.15625,0.0781 -1.01563,2.51563 q -0.1875,0.0937 -0.46875,0.23437 -0.26562,0.125 -0.65625,0.23437 -0.375,0.125 -0.89062,0.20313 -0.51563,0.0937 -1.21875,0.0937 -2.09375,0 -3.26563,-1.125 Q 330.5,928.04687 330.5,925.64063 l 0,-10.42188 -2.625,0.0937 0,-1.375 q 0.48438,0.0313 1.15625,0.0469 Q 329.70313,914 330.5,914 q -0.0156,-1.10937 -0.0625,-1.95313 -0.0313,-0.85937 -0.0937,-1.48437 -0.0469,-0.64062 -0.125,-1.07813 -0.0781,-0.4375 -0.15625,-0.73437 l 0,-0.0625 3.60938,0 0,0.0625 q -0.0937,0.29687 -0.17188,0.73437 -0.0781,0.43751 -0.14062,1.06251 -0.0469,0.62499 -0.0937,1.48437 -0.0313,0.84375 -0.0469,1.96875 0.98438,-0.0156 1.92188,-0.0313 0.95312,-0.0313 1.71875,-0.0625 0.78125,-0.0469 1.3125,-0.0781 0.54687,-0.0469 0.71875,-0.0781 l -0.28125,1.59375 q -0.79688,-0.0156 -1.67188,-0.0469 -0.75,-0.0313 -1.71875,-0.0469 -0.96875,-0.0156 -2,-0.0313 l 0,10.75 q 0,0.96875 0.20313,1.57813 0.21875,0.59374 0.54687,0.93749 0.34375,0.34376 0.76563,0.46876 0.4375,0.12499 0.89062,0.12499 z"/>
	    <path d="m 341.03125,925.39062 q 0,-1.23437 0.5,-2.14062 0.51563,-0.90625 1.35938,-1.54687 0.84375,-0.64063 1.92187,-1.03125 1.07813,-0.40626 2.23438,-0.62501 1.15625,-0.23437 2.28125,-0.31249 1.125,-0.0937 2.0625,-0.10938 l 0,-0.79687 q 0,-1.03125 -0.26563,-1.78126 -0.26562,-0.75 -0.75,-1.23437 -0.48437,-0.5 -1.17187,-0.73438 -0.67188,-0.24999 -1.48438,-0.24999 -0.5625,0 -1.10937,0.0937 -0.54688,0.0937 -1.14063,0.31249 -0.57812,0.21875 -1.23437,0.59376 -0.64063,0.37499 -1.39063,0.95312 l -0.15625,-0.0937 1.0625,-2.20313 q 0.51563,-0.23437 1.01563,-0.375 0.5,-0.15624 1.01562,-0.24999 0.51563,-0.0937 1.04688,-0.125 0.54687,-0.0469 1.14062,-0.0469 1.64063,0 2.79688,0.40625 1.17187,0.39062 1.90625,1.09375 0.75,0.6875 1.09375,1.625 0.34375,0.92188 0.34375,1.98438 l 0,5.09375 q 0,1.32812 0.0313,2.32812 0.0469,0.98437 0.0937,1.70313 0.0625,0.71875 0.14062,1.20312 0.0937,0.48438 0.1875,0.8125 l 0,0.0625 -3.45312,0 0,-0.0625 q 0.0781,-0.25 0.10937,-0.5625 0.0469,-0.3125 0.0781,-0.75 -0.32813,0.28125 -0.78125,0.57812 -0.4375,0.29688 -1.01563,0.54688 -0.5625,0.23438 -1.26562,0.375 -0.6875,0.15625 -1.51563,0.15625 -2.71875,0 -4.20312,-1.26563 -1.48438,-1.28124 -1.48438,-3.625 z m 10.35938,-4.54687 q -1.42188,0.0156 -2.73438,0.17187 -1.3125,0.14063 -2.32812,0.60938 -1,0.46875 -1.60938,1.34375 -0.59375,0.85938 -0.59375,2.29687 0,1.84375 0.92188,2.8125 0.92187,0.96875 2.54687,0.96875 0.75,0 1.35938,-0.20312 0.625,-0.21875 1.09375,-0.53125 0.48437,-0.32812 0.8125,-0.70312 0.32812,-0.39063 0.5,-0.75 0.0313,-0.59376 0.0313,-1.3125 0,-0.73438 0,-1.65625 l 0,-3.04688 z"/>
	    <path d="m 358.84375,919.79688 q 0,-1.32813 -0.0469,-2.31251 -0.0313,-1 -0.0937,-1.71874 -0.0469,-0.71876 -0.14063,-1.20313 -0.0781,-0.48438 -0.17187,-0.8125 l 0,-0.0625 3.60937,0 0,0.0625 q -0.0781,0.23438 -0.14062,0.53125 -0.0625,0.29688 -0.10938,0.67188 0.92188,-0.53126 2.03125,-0.89063 1.125,-0.375 2.48438,-0.375 1.73437,0 3.15625,0.59375 1.4375,0.57813 2.45312,1.67188 1.03125,1.09374 1.59375,2.64062 0.5625,1.54687 0.5625,3.46875 0,1.60938 -0.5625,3.09375 -0.54687,1.48438 -1.625,2.625 -1.0625,1.14063 -2.625,1.82813 -1.5625,0.67187 -3.59375,0.67187 -1.21875,0 -2.21875,-0.1875 -1,-0.1875 -1.84375,-0.48437 l 0,2.28125 q 0,1.32812 0.0313,2.31249 0.0313,1 0.0937,1.71876 0.0625,0.71875 0.14063,1.20312 0.0781,0.48438 0.17187,0.8125 l 0,0.0625 -3.60937,0 0,-0.0625 q 0.0937,-0.32812 0.17187,-0.8125 0.0937,-0.48437 0.14063,-1.20312 0.0625,-0.71876 0.0937,-1.71876 0.0469,-0.98437 0.0469,-2.31249 l 0,-12.09375 z m 6.875,-4.9375 q -0.53125,0 -1.09375,0.14062 -0.54687,0.125 -1.09375,0.375 -0.53125,0.23438 -1.03125,0.60938 -0.48437,0.35937 -0.875,0.82812 -0.0313,0.59375 -0.0469,1.34375 -0.0156,0.75 -0.0156,1.64063 l 0,8.1875 q 0.3125,0.23437 0.70313,0.43749 0.39062,0.20313 0.875,0.37501 0.5,0.15625 1.10937,0.24999 0.625,0.0937 1.375,0.0937 1.21875,0 2.20313,-0.43749 0.98437,-0.43751 1.65625,-1.26563 0.6875,-0.82812 1.04687,-2.01563 0.375,-1.1875 0.375,-2.68749 0,-1.68751 -0.28125,-3.125 -0.28125,-1.45313 -0.90625,-2.50001 -0.60937,-1.0625 -1.59375,-1.65625 -0.98437,-0.59374 -2.40625,-0.59374 z"/>
	    <path d="m 377.625,912.75 q 0,-1.32813 -0.0469,-2.3125 -0.0313,-1 -0.0937,-1.71875 -0.0469,-0.71875 -0.14063,-1.20312 -0.0781,-0.48438 -0.17187,-0.8125 l 0,-0.0625 3.60937,0 0,0.0625 q -0.0937,0.32812 -0.17187,0.8125 -0.0781,0.48437 -0.14063,1.20312 -0.0625,0.71875 -0.0937,1.71875 -0.0313,0.98437 -0.0313,2.3125 l 0,11.14063 q 0,1.32812 0.0313,2.32812 0.0313,0.98437 0.0937,1.70313 0.0625,0.71875 0.14063,1.20312 0.0781,0.48438 0.17187,0.8125 l 0,0.0625 -3.60937,0 0,-0.0625 q 0.0937,-0.32812 0.17187,-0.8125 0.0937,-0.48437 0.14063,-1.20312 0.0625,-0.71876 0.0937,-1.70313 0.0469,-1 0.0469,-2.32812 l 0,-11.14063 z"/>
	    <path d="m 392.28125,930.28125 q -1.73437,0 -3.25,-0.54687 -1.51562,-0.54688 -2.64062,-1.59376 -1.125,-1.0625 -1.78125,-2.60937 -0.64063,-1.5625 -0.64063,-3.5625 0,-1.76563 0.59375,-3.26562 0.59375,-1.51563 1.64063,-2.62501 1.04687,-1.10937 2.4375,-1.73437 1.40625,-0.625 3.03125,-0.625 1.60937,0 2.98437,0.5625 1.375,0.54688 2.375,1.60938 1.01563,1.04687 1.59375,2.60937 0.59375,1.54687 0.64063,3.53125 -1.76563,-0.0313 -3.53125,-0.0469 -1.76563,-0.0156 -3.67188,-0.0156 -1.35937,0 -2.65625,0.0156 -1.28125,0.0156 -2.3125,0.0469 0.0937,1.625 0.5,2.9375 0.42188,1.3125 1.14063,2.25 0.73437,0.92187 1.76562,1.42188 1.04688,0.49999 2.35938,0.49999 0.90625,0 1.70312,-0.20312 0.8125,-0.21875 1.46875,-0.59375 0.65625,-0.375 1.17188,-0.875 0.51562,-0.51562 0.875,-1.10938 l 0.1875,0.0937 -1.15625,2.78125 q -0.84375,0.43751 -2.01563,0.75001 -1.17187,0.29687 -2.8125,0.29687 z M 390.20313,920.75 q 1.5625,0 3.125,0 1.57812,-0.0156 2.85937,-0.0625 -0.14062,-1.35938 -0.53125,-2.4375 -0.39062,-1.07813 -1,-1.82813 -0.60937,-0.74999 -1.4375,-1.15625 -0.82812,-0.40624 -1.82812,-0.40624 -0.90625,0 -1.67188,0.40624 -0.75,0.39063 -1.3125,1.14063 -0.5625,0.75 -0.90625,1.84375 -0.34375,1.07812 -0.40625,2.46875 0.70313,0.0313 1.48438,0.0313 0.78125,0 1.625,0 z"/>
	    <path d="m 409.78125,913.71875 q 0.64063,0 1.28125,0.10938 0.64063,0.10937 1.25,0.31249 0.60938,0.20313 1.15625,0.50001 0.54688,0.29687 0.98438,0.67187 l 0,-2.5625 q 0,-1.32813 -0.0313,-2.3125 -0.0313,-1 -0.0937,-1.71875 -0.0625,-0.71875 -0.14063,-1.20312 -0.0781,-0.48438 -0.17187,-0.8125 l 0,-0.0625 3.60937,0 0,0.0625 q -0.0937,0.32812 -0.1875,0.8125 -0.0781,0.48437 -0.14062,1.20312 -0.0469,0.71875 -0.0937,1.71875 -0.0313,0.98437 -0.0313,2.3125 l 0,11.14063 q 0,1.32812 0.0313,2.32812 0.0469,0.98437 0.0937,1.70313 0.0625,0.71875 0.14062,1.20312 0.0937,0.48438 0.1875,0.8125 l 0,0.0625 -3.45312,0 0,-0.0625 q 0.0469,-0.125 0.0781,-0.35937 0.0313,-0.25001 0.0781,-0.60938 -0.79688,0.5 -2,0.90625 -1.20313,0.40625 -2.79688,0.40625 -1.85937,0 -3.375,-0.57812 -1.51562,-0.57813 -2.59375,-1.65626 -1.0625,-1.07812 -1.64062,-2.60937 -0.57813,-1.54687 -0.57813,-3.46875 0,-1.76563 0.625,-3.26562 0.625,-1.51563 1.75,-2.62501 1.125,-1.10937 2.67188,-1.73437 1.54687,-0.625 3.39062,-0.625 z m 4.67188,4.34375 q -0.625,-1.64063 -1.79688,-2.42187 -1.15625,-0.78125 -2.60937,-0.78125 -1.21875,0 -2.25,0.43749 -1.03125,0.42188 -1.76563,1.23438 -0.73437,0.8125 -1.15625,2 -0.40625,1.17188 -0.40625,2.67187 0,1.68751 0.375,3.14063 0.375,1.45313 1.09375,2.53125 0.73438,1.0625 1.8125,1.67188 1.07813,0.59374 2.48438,0.59374 0.73437,0 1.375,-0.17187 0.64062,-0.17187 1.17187,-0.4375 0.53125,-0.26563 0.9375,-0.57812 0.40625,-0.32813 0.67188,-0.64063 0.0313,-0.67187 0.0469,-1.53125 0.0156,-0.85937 0.0156,-1.89062 l 0,-5.82813 z"/>
	    <path d="m 420.65625,921.96875 q 0,-1.76563 0.65625,-3.26562 0.65625,-1.51563 1.79688,-2.62501 1.15625,-1.10937 2.71875,-1.73437 1.5625,-0.625 3.35937,-0.625 1.76563,0 3.3125,0.59375 1.5625,0.57813 2.71875,1.65625 1.15625,1.07812 1.8125,2.625 0.67188,1.54687 0.67188,3.46875 0,1.60938 -0.5625,3.09375 -0.5625,1.48438 -1.65625,2.625 -1.09375,1.14063 -2.6875,1.82813 -1.57813,0.67187 -3.64063,0.67187 -1.75,0 -3.29687,-0.57812 -1.54688,-0.57813 -2.70313,-1.65626 -1.15625,-1.07812 -1.82812,-2.60937 -0.67188,-1.54687 -0.67188,-3.46875 z m 8.85938,7.17187 q 1.10937,0 2.03125,-0.43749 0.9375,-0.43751 1.60937,-1.26563 0.67188,-0.82812 1.04688,-2.01563 0.375,-1.1875 0.375,-2.68749 0,-1.68751 -0.35938,-3.125 -0.35937,-1.45313 -1.07812,-2.50001 -0.70313,-1.0625 -1.78125,-1.65625 -1.07813,-0.59374 -2.51563,-0.59374 -1.10937,0 -2.03125,0.43749 -0.92187,0.42188 -1.60937,1.23438 -0.67188,0.8125 -1.04688,2 -0.375,1.17188 -0.375,2.67187 0,1.68751 0.35938,3.14063 0.375,1.45313 1.09375,2.53125 0.71875,1.0625 1.78125,1.67188 1.07812,0.59374 2.5,0.59374 z"/>
	    <path d="m 451.96875,919.46875 q 0,-2.0625 -0.82812,-3.03125 -0.82813,-0.96875 -2.21875,-0.96875 -0.5,0 -1.125,0.21875 -0.625,0.20313 -1.28125,0.5625 -0.65625,0.34375 -1.3125,0.8125 -0.65625,0.46875 -1.23438,1 l -0.0313,2.04687 0,3.78126 q 0,1.32812 0.0313,2.32812 0.0313,0.98437 0.0937,1.70313 0.0625,0.71875 0.14063,1.20312 0.0781,0.48438 0.17187,0.8125 l 0,0.0625 -3.60937,0 0,-0.0625 q 0.0937,-0.32812 0.17187,-0.8125 0.0937,-0.48437 0.14063,-1.20312 0.0625,-0.71876 0.0937,-1.70313 0.0469,-1 0.0469,-2.32812 l 0,-3.78126 q 0,-1.32812 -0.0469,-2.31249 -0.0313,-1 -0.0937,-1.71876 -0.0469,-0.71875 -0.14063,-1.20312 -0.0781,-0.48438 -0.17187,-0.8125 l 0,-0.0625 3.60937,0 0,0.0625 q -0.125,0.39062 -0.20312,1 -0.0625,0.59375 -0.14063,1.5625 0.64063,-0.53125 1.375,-1.0625 0.75,-0.53125 1.54688,-0.9375 0.79687,-0.42188 1.625,-0.67187 0.82812,-0.26563 1.625,-0.26563 1.21875,0 2.0625,0.42187 0.85937,0.42188 1.39062,1.10938 0.54688,0.6875 0.78125,1.57813 0.25,0.875 0.25,1.78125 l 0,5.3125 q 0,1.32812 0.0313,2.32812 0.0313,0.98437 0.0937,1.70313 0.0625,0.71875 0.14063,1.20312 0.0781,0.48438 0.17187,0.8125 l 0,0.0625 -3.60937,0 0,-0.0625 q 0.0937,-0.32812 0.17187,-0.8125 0.0937,-0.48437 0.14063,-1.20312 0.0625,-0.71876 0.0937,-1.70313 0.0469,-1 0.0469,-2.32812 l 0,-4.42188 z"/>
	  </g>
	</g>
</svg>
